<?xml version="1.0" encoding="UTF-8" standalone="no"?>
<!-- Generator: Adobe Illustrator 19.1.1, SVG Export Plug-In . SVG Version: 6.00 Build 0)  -->

<svg
   xmlns:dc="http://purl.org/dc/elements/1.1/"
   xmlns:cc="http://creativecommons.org/ns#"
   xmlns:rdf="http://www.w3.org/1999/02/22-rdf-syntax-ns#"
   xmlns:svg="http://www.w3.org/2000/svg"
   xmlns="http://www.w3.org/2000/svg"
   xmlns:sodipodi="http://sodipodi.sourceforge.net/DTD/sodipodi-0.dtd"
   xmlns:inkscape="http://www.inkscape.org/namespaces/inkscape"
   version="1.1"
   id="Lager_1"
   x="0px"
   y="0px"
   viewBox="0 0 2624 850"
   style="enable-background:new 0 0 2624 850;"
   xml:space="preserve"
   sodipodi:docname="swedtech-logo.svg"
   inkscape:version="0.92.5 (2060ec1f9f, 2020-04-08)"><metadata
   id="metadata107"><rdf:RDF><cc:Work
       rdf:about=""><dc:format>image/svg+xml</dc:format><dc:type
         rdf:resource="http://purl.org/dc/dcmitype/StillImage" /><dc:title></dc:title></cc:Work></rdf:RDF></metadata><defs
   id="defs105" /><sodipodi:namedview
   pagecolor="#ffffff"
   bordercolor="#666666"
   borderopacity="1"
   objecttolerance="10"
   gridtolerance="10"
   guidetolerance="10"
   inkscape:pageopacity="0"
   inkscape:pageshadow="2"
   inkscape:window-width="1996"
   inkscape:window-height="1069"
   id="namedview103"
   showgrid="false"
   inkscape:zoom="0.42378049"
   inkscape:cx="942.73466"
   inkscape:cy="211.81188"
   inkscape:window-x="0"
   inkscape:window-y="0"
   inkscape:window-maximized="0"
   inkscape:current-layer="layer2" />
<style
   type="text/css"
   id="style2">
	.st0{fill-rule:evenodd;clip-rule:evenodd;}
	.st1{fill-rule:evenodd;clip-rule:evenodd;fill:#FFFFFF;}
	.st2{fill-rule:evenodd;clip-rule:evenodd;fill:#D52C1C;}
</style>

























<g
   inkscape:groupmode="layer"
   id="layer2"
   inkscape:label="1"
   style="display:inline"><path
     d="M 706.5,-0.40039062 C 509.1,-0.40039062 344.2,123.20039 288,294.40039 h 66.5 l 4.5,42.69922 c 3.8,-1.4 7.80078,-2.50039 11.80078,-3.40039 1.7,-11.2 3.5,-22.79961 5.5,-34.59961 l 0.79883,-4.79883 h 75.30078 L 446,348 c 3,2 5.8,4.19961 8.5,6.59961 1.6,-8.4 3.69961,-15.7 6.59961,-22 6.3,-13.8 16.6,-24.39883 31,-31.79883 14,-7.1 30,-10.70117 48,-10.70117 18.9,0 35.00039,3.19961 48.40039,9.59961 30.8,-27.4 72.10039,-44.19922 117.40039,-44.19922 12.5,0 24.70039,1.19922 36.40039,3.69922 v -19.89844 h 86.09961 V 304.5 c 31.2,30 50.40039,71.50078 50.40039,117.30078 0,45.7 -19.20039,87.19883 -50.40039,117.29883 v 17.20117 h -21 c -28.5,19.9 -63.59961,31.69922 -101.59961,31.69922 -42,0 -80.5,-14.40078 -110.5,-38.30078 -2.3,1.3 -4.80078,2.80039 -7.30078,3.90039 -11.5,5 -25.80078,7.5 -42.80078,7.5 -2.6,-0.1 -5.39961,-0.0992 -8.09961,-0.19922 28.8,15.4 48.30078,44.90039 48.30078,78.90039 0,49.8 -42.00078,90.09961 -93.80078,90.09961 -51.8,0 -93.79883,-40.39961 -93.79883,-90.09961 0,-49.8 41.99883,-90.10156 93.79883,-90.10156 0.4,0 0.69961,0.002 1.09961,0.10156 -8.8,-4.5 -15.99961,-10.10078 -21.59961,-16.80078 -7.3,-8.8 -12.29961,-18.40039 -15.09961,-28.90039 -1,-4 -1.9,-8.89883 -2.5,-14.29883 -7.7,6.5 -16.49961,11.69961 -26.09961,15.59961 L 421.30078,556.5 h -90.90039 l -0.59961,-4.90039 c -2.8,-19.6 -6.00156,-43.30039 -9.60156,-71.40039 -0.4,-0.4 -0.69961,-0.89922 -1.09961,-1.19922 -0.9,6.1 -1.69922,12.20039 -2.69922,18.40039 l -8.80078,59.19922 H 288.69922 C 345.79922,726.59961 510.1,850 706.5,850 950.9,850 1149,659.60078 1149,424.80078 1149,189.90078 950.9,-0.40039062 706.5,-0.40039062 Z M 711,29.099609 c 51.8,0 93.80078,40.401172 93.80078,90.201171 0,49.8 -42.00078,90.09961 -93.80078,90.09961 -51.8,0 -93.80078,-40.39961 -93.80078,-90.09961 C 617.19922,69.500781 659.2,29.099609 711,29.099609 Z M 487.19922,115.90039 C 538.99922,115.90039 581,156.2 581,206 c 0,49.8 -42.00078,90.09961 -93.80078,90.09961 -51.8,0 -93.79883,-40.39961 -93.79883,-90.09961 0,-49.8 41.99883,-90.09961 93.79883,-90.09961 z m 440.30078,0 c 51.8,0 93.8008,40.29961 93.8008,90.09961 0,49.8 -42.0008,90.09961 -93.8008,90.09961 -51.8,0 -93.80078,-40.39961 -93.80078,-90.09961 0,-49.8 42.00078,-90.09961 93.80078,-90.09961 z m 80.1992,223.40039 c 51.8,0 93.8008,40.29961 93.8008,90.09961 0,49.8 -42.0008,90.09961 -93.8008,90.09961 -51.79998,0 -93.79881,-40.39961 -93.79881,-90.09961 0,-49.8 41.99883,-90.09961 93.79881,-90.09961 z m -82.09959,210.5 c 51.8,-0.1 93.80079,40.29961 93.80079,90.09961 0,49.8 -42.00079,90.09961 -93.80079,90.09961 -51.8,0 -93.79883,-40.39961 -93.79883,-90.09961 0,-49.8 41.99883,-90.09961 93.79883,-90.09961 z M 711,634.30078 c 51.8,0 93.80078,40.39922 93.80078,90.19922 0,49.8 -42.00078,90.09961 -93.80078,90.09961 -51.8,0 -93.80078,-40.39961 -93.80078,-90.09961 0,-49.8 42.00078,-90.19922 93.80078,-90.19922 z"
     id="path4"
     inkscape:connector-curvature="0" /></g><g
   inkscape:groupmode="layer"
   id="layer3"
   inkscape:label="2"
   style="display:inline"><polyline
     style="clip-rule:evenodd;fill-rule:evenodd"
     class="st0"
     points="1112.7,623.8 2624.7,623.8 2624.7,611.3 1112.7,611.3 1112.7,623.8 "
     id="polyline50" /><g
     id="g100">
	<path
   d="m 1117.8,648.9 h 19.2 c 12.4,0 20.8,0.6 25.2,1.9 4.4,1.3 7.7,3.3 10,6.2 2.3,2.9 3.7,6 4.3,9.6 0.6,3.5 0.9,10.4 0.9,20.7 v 38 c 0,9.8 -0.4,16.3 -1.3,19.6 -0.8,3.3 -2.3,5.9 -4.4,7.7 -2.1,1.9 -4.6,3.2 -7.7,3.9 -3,0.7 -7.6,1.1 -13.8,1.1 h -32.4 z m 25.7,18.6 v 71.4 c 3.7,0 6,-0.8 6.8,-2.4 0.9,-1.6 1.3,-6.1 1.3,-13.3 V 681 c 0,-4.9 -0.1,-8.1 -0.4,-9.5 -0.3,-1.4 -0.9,-2.4 -2,-3.1 -1,-0.6 -2.9,-0.9 -5.7,-0.9 z"
   id="path52"
   inkscape:connector-curvature="0" />
	<path
   d="m 1217.7,648.9 v 14.2 h -25.4 v -14.2 z m 0,19.6 v 89 h -25.4 v -89 z"
   id="path54"
   inkscape:connector-curvature="0" />
	<path
   d="m 1283.8,668.5 -11.5,89 H 1240 l -12.4,-89 h 22 l 6.9,65 c 0.5,-4.8 1.5,-16.4 2.8,-34.9 0.7,-10.3 1.5,-20.4 2.4,-30.1 z"
   id="path56"
   inkscape:connector-curvature="0" />
	<path
   d="m 1349.4,714.6 h -31.9 v 19.3 c 0,4 0.3,6.6 0.8,7.8 0.5,1.2 1.5,1.7 3,1.7 1.9,0 3.1,-0.8 3.8,-2.3 0.6,-1.5 0.9,-4.5 0.9,-9 v -11.7 h 23.4 v 6.6 c 0,5.5 -0.3,9.7 -0.9,12.7 -0.6,3 -2.1,6.1 -4.4,9.5 -2.3,3.4 -5.3,5.9 -8.8,7.5 -3.6,1.7 -8,2.5 -13.4,2.5 -5.2,0 -9.8,-0.8 -13.8,-2.5 -4,-1.7 -7.1,-3.9 -9.3,-6.8 -2.2,-2.9 -3.8,-6.1 -4.6,-9.5 -0.9,-3.5 -1.3,-8.5 -1.3,-15.1 v -26 c 0,-7.8 1,-13.9 2.9,-18.4 1.9,-4.5 5,-7.9 9.4,-10.3 4.4,-2.4 9.4,-3.6 15,-3.6 6.9,0 12.6,1.4 17.1,4.3 4.5,2.9 7.6,6.7 9.5,11.5 1.8,4.8 2.7,11.5 2.7,20.1 v 11.7 z m -24.7,-14.5 v -6.5 c 0,-4.6 -0.2,-7.6 -0.7,-8.9 -0.4,-1.3 -1.4,-2 -2.7,-2 -1.7,0 -2.8,0.6 -3.2,1.7 -0.4,1.1 -0.6,4.2 -0.6,9.2 v 6.5 z"
   id="path58"
   inkscape:connector-curvature="0" />
	<path
   d="m 1444.4,648.9 v 21.7 h -15.2 v 86.9 h -25.7 v -86.9 h -15.2 v -21.7 z"
   id="path60"
   inkscape:connector-curvature="0" />
	<path
   d="m 1480.4,668.5 -1,11.7 c 3.6,-8.4 8.8,-12.8 15.6,-13.3 v 31.3 c -4.5,0 -7.8,0.7 -9.9,2 -2.1,1.3 -3.4,3.2 -3.9,5.6 -0.5,2.4 -0.7,7.9 -0.7,16.5 v 35.2 h -24.6 v -89 z"
   id="path62"
   inkscape:connector-curvature="0" />
	<path
   d="m 1528.8,703 h -23.1 v -6 c 0,-6.9 0.7,-12.2 2.2,-15.9 1.4,-3.7 4.3,-7 8.7,-9.9 4.4,-2.9 10,-4.3 17,-4.3 8.3,0 14.6,1.6 18.8,4.9 4.2,3.2 6.8,7.2 7.6,11.9 0.9,4.7 1.3,14.4 1.3,29.1 v 44.7 h -24 v -7.9 c -1.5,3.2 -3.4,5.6 -5.8,7.2 -2.4,1.6 -5.2,2.4 -8.5,2.4 -4.3,0 -8.3,-1.3 -11.9,-4 -3.6,-2.7 -5.4,-8.5 -5.4,-17.5 v -7.3 c 0,-6.7 1,-11.2 2.9,-13.6 1.9,-2.4 6.6,-5.2 14.2,-8.5 8.1,-3.5 12.4,-5.8 13,-7 0.6,-1.2 0.9,-3.7 0.9,-7.4 0,-4.7 -0.3,-7.7 -0.9,-9.1 -0.6,-1.4 -1.7,-2.1 -3.1,-2.1 -1.7,0 -2.7,0.6 -3.1,1.8 -0.4,1.2 -0.6,4.3 -0.6,9.2 v 9.3 z m 7.8,12.2 c -3.9,3.2 -6.2,5.8 -6.9,8 -0.6,2.1 -0.9,5.2 -0.9,9.3 0,4.6 0.3,7.6 0.8,8.9 0.5,1.3 1.6,2 3.3,2 1.5,0 2.6,-0.5 3,-1.6 0.5,-1 0.7,-3.8 0.7,-8.3 z"
   id="path64"
   inkscape:connector-curvature="0" />
	<path
   d="m 1601.3,648.9 v 14.2 h -25.4 v -14.2 z m 0,19.6 v 89 h -25.4 v -89 z"
   id="path66"
   inkscape:connector-curvature="0" />
	<path
   d="m 1641.4,668.5 -0.4,8.2 c 1.8,-3.3 4,-5.7 6.6,-7.4 2.6,-1.6 5.6,-2.5 8.9,-2.5 4.2,0 7.7,1.1 10.4,3.3 2.7,2.2 4.4,5 5.2,8.3 0.8,3.3 1.2,8.9 1.2,16.7 v 62.4 h -24.6 v -61.7 c 0,-6.1 -0.2,-9.9 -0.5,-11.2 -0.3,-1.3 -1.4,-2 -3,-2 -1.7,0 -2.8,0.8 -3.3,2.3 -0.5,1.5 -0.7,5.7 -0.7,12.4 v 60.2 h -24.6 v -89 z"
   id="path68"
   inkscape:connector-curvature="0" />
	<path
   d="m 1713.3,648.9 v 14.2 h -25.4 v -14.2 z m 0,19.6 v 89 h -25.4 v -89 z"
   id="path70"
   inkscape:connector-curvature="0" />
	<path
   d="m 1753.5,668.5 -0.4,8.2 c 1.8,-3.3 4,-5.7 6.6,-7.4 2.6,-1.6 5.6,-2.5 8.9,-2.5 4.2,0 7.7,1.1 10.4,3.3 2.7,2.2 4.4,5 5.2,8.3 0.8,3.3 1.2,8.9 1.2,16.7 v 62.4 h -24.6 v -61.7 c 0,-6.1 -0.2,-9.9 -0.5,-11.2 -0.3,-1.3 -1.4,-2 -3,-2 -1.7,0 -2.8,0.8 -3.3,2.3 -0.5,1.5 -0.7,5.7 -0.7,12.4 v 60.2 h -24.6 v -89 z"
   id="path72"
   inkscape:connector-curvature="0" />
	<path
   d="m 1855.9,668.5 v 68.6 c 0,9.3 -0.2,15.2 -0.6,17.9 -0.4,2.7 -1.8,5.6 -4.1,8.6 -2.4,3 -5.6,5.3 -9.8,6.9 -4.2,1.6 -9.5,2.4 -15.9,2.4 -7.8,0 -14.1,-1.5 -18.9,-4.4 -4.8,-2.9 -7.2,-8.7 -7.4,-17.3 h 23.9 c 0,3.9 1.3,5.9 3.9,5.9 1.9,0 3.1,-0.6 3.7,-1.8 0.6,-1.2 0.9,-3.7 0.9,-7.6 V 741 c -2.1,2.1 -4.3,3.7 -6.7,4.8 -2.3,1.1 -4.8,1.6 -7.3,1.6 -4.4,0 -8.1,-1 -10.9,-3 -2.9,-2 -4.8,-4.5 -5.9,-7.7 -1.1,-3.2 -1.6,-7.7 -1.6,-13.7 v -32.3 c 0,-8.5 1.4,-14.5 4.1,-18.2 2.8,-3.7 7,-5.6 12.6,-5.6 3.1,0 5.9,0.7 8.4,2.1 2.5,1.4 4.8,3.5 6.8,6.3 l 1.8,-6.7 h 23 z m -24.7,23.6 c 0,-4.1 -0.2,-6.7 -0.6,-7.8 -0.4,-1.1 -1.4,-1.7 -2.8,-1.7 -1.4,0 -2.4,0.6 -3,1.9 -0.6,1.3 -0.9,3.8 -0.9,7.5 v 30 c 0,4 0.2,6.6 0.7,7.7 0.4,1.2 1.4,1.8 2.8,1.8 1.6,0 2.7,-0.7 3.2,-2.1 0.5,-1.4 0.7,-4.7 0.7,-9.7 v -27.6 z"
   id="path74"
   inkscape:connector-curvature="0" />
	<path
   d="m 1958.6,712.5 c 0,10.9 -0.2,18.6 -0.7,23.2 -0.5,4.5 -1.9,8.7 -4.4,12.4 -2.5,3.7 -5.8,6.6 -10,8.7 -4.2,2 -9.1,3 -14.6,3 -5.3,0 -10,-1 -14.2,-2.9 -4.2,-1.9 -7.6,-4.8 -10.2,-8.6 -2.6,-3.8 -4.1,-7.9 -4.6,-12.4 -0.5,-4.5 -0.7,-12.3 -0.7,-23.5 v -18.6 c 0,-10.9 0.2,-18.6 0.7,-23.2 0.5,-4.5 1.9,-8.7 4.4,-12.4 2.5,-3.8 5.8,-6.6 10,-8.7 4.2,-2 9.1,-3 14.6,-3 5.3,0 10,1 14.2,2.9 4.2,1.9 7.6,4.8 10.2,8.6 2.6,3.8 4.1,7.9 4.6,12.4 0.5,4.5 0.7,12.3 0.7,23.5 z M 1933,676.8 c 0,-5.1 -0.3,-8.3 -0.8,-9.7 -0.5,-1.4 -1.6,-2.1 -3.1,-2.1 -1.3,0 -2.4,0.6 -3.1,1.7 -0.7,1.1 -1.1,4.5 -1.1,10.1 v 50.7 c 0,6.3 0.2,10.2 0.7,11.7 0.5,1.5 1.6,2.2 3.3,2.2 1.7,0 2.9,-0.8 3.4,-2.5 0.5,-1.7 0.7,-5.7 0.7,-12.1 z"
   id="path76"
   inkscape:connector-curvature="0" />
	<path
   d="m 1998.4,668.5 -1,11.7 c 3.6,-8.4 8.8,-12.8 15.6,-13.3 v 31.3 c -4.5,0 -7.8,0.7 -9.9,2 -2.1,1.3 -3.4,3.2 -3.9,5.6 -0.5,2.4 -0.7,7.9 -0.7,16.5 v 35.2 h -24.6 v -89 z"
   id="path78"
   inkscape:connector-curvature="0" />
	<path
   d="m 2080.7,668.5 v 68.6 c 0,9.3 -0.2,15.2 -0.6,17.9 -0.4,2.7 -1.8,5.6 -4.1,8.6 -2.4,3 -5.6,5.3 -9.8,6.9 -4.2,1.6 -9.5,2.4 -15.9,2.4 -7.8,0 -14.1,-1.5 -18.9,-4.4 -4.8,-2.9 -7.2,-8.7 -7.4,-17.3 h 23.9 c 0,3.9 1.3,5.9 3.9,5.9 1.9,0 3.1,-0.6 3.7,-1.8 0.6,-1.2 0.9,-3.7 0.9,-7.6 V 741 c -2.1,2.1 -4.3,3.7 -6.7,4.8 -2.3,1.1 -4.8,1.6 -7.3,1.6 -4.4,0 -8.1,-1 -10.9,-3 -2.9,-2 -4.8,-4.5 -5.9,-7.7 -1.1,-3.2 -1.6,-7.7 -1.6,-13.7 v -32.3 c 0,-8.5 1.4,-14.5 4.1,-18.2 2.8,-3.7 7,-5.6 12.6,-5.6 3.1,0 5.9,0.7 8.4,2.1 2.5,1.4 4.8,3.5 6.8,6.3 l 1.8,-6.7 h 23 z m -24.7,23.6 c 0,-4.1 -0.2,-6.7 -0.6,-7.8 -0.4,-1.1 -1.4,-1.7 -2.8,-1.7 -1.4,0 -2.4,0.6 -3,1.9 -0.6,1.3 -0.9,3.8 -0.9,7.5 v 30 c 0,4 0.2,6.6 0.7,7.7 0.4,1.2 1.4,1.8 2.8,1.8 1.6,0 2.7,-0.7 3.2,-2.1 0.5,-1.4 0.7,-4.7 0.7,-9.7 v -27.6 z"
   id="path80"
   inkscape:connector-curvature="0" />
	<path
   d="m 2117.7,703 h -23.1 v -6 c 0,-6.9 0.7,-12.2 2.2,-15.9 1.4,-3.7 4.3,-7 8.7,-9.9 4.4,-2.9 10,-4.3 17,-4.3 8.3,0 14.6,1.6 18.8,4.9 4.2,3.2 6.8,7.2 7.6,11.9 0.9,4.7 1.3,14.4 1.3,29.1 v 44.7 h -24 v -7.9 c -1.5,3.2 -3.4,5.6 -5.8,7.2 -2.4,1.6 -5.2,2.4 -8.5,2.4 -4.3,0 -8.3,-1.3 -11.9,-4 -3.6,-2.7 -5.4,-8.5 -5.4,-17.5 v -7.3 c 0,-6.7 1,-11.2 2.9,-13.6 1.9,-2.4 6.6,-5.2 14.2,-8.5 8.1,-3.5 12.4,-5.8 13,-7 0.6,-1.2 0.9,-3.7 0.9,-7.4 0,-4.7 -0.3,-7.7 -0.9,-9.1 -0.6,-1.4 -1.7,-2.1 -3.1,-2.1 -1.7,0 -2.7,0.6 -3.1,1.8 -0.4,1.2 -0.6,4.3 -0.6,9.2 v 9.3 z m 7.8,12.2 c -3.9,3.2 -6.2,5.8 -6.9,8 -0.6,2.1 -0.9,5.2 -0.9,9.3 0,4.6 0.3,7.6 0.8,8.9 0.5,1.3 1.6,2 3.3,2 1.5,0 2.6,-0.5 3,-1.6 0.5,-1 0.7,-3.8 0.7,-8.3 z"
   id="path82"
   inkscape:connector-curvature="0" />
	<path
   d="m 2189.9,668.5 -0.4,8.2 c 1.8,-3.3 4,-5.7 6.6,-7.4 2.6,-1.6 5.6,-2.5 8.9,-2.5 4.2,0 7.7,1.1 10.4,3.3 2.7,2.2 4.4,5 5.2,8.3 0.8,3.3 1.2,8.9 1.2,16.7 v 62.4 h -24.6 v -61.7 c 0,-6.1 -0.2,-9.9 -0.5,-11.2 -0.3,-1.3 -1.4,-2 -3,-2 -1.7,0 -2.8,0.8 -3.3,2.3 -0.5,1.5 -0.7,5.7 -0.7,12.4 v 60.2 h -24.6 v -89 z"
   id="path84"
   inkscape:connector-curvature="0" />
	<path
   d="m 2261.8,648.9 v 14.2 h -25.4 v -14.2 z m 0,19.6 v 89 h -25.4 v -89 z"
   id="path86"
   inkscape:connector-curvature="0" />
	<path
   d="m 2327.2,697 h -21.8 v -4.8 c 0,-4.1 -0.2,-6.7 -0.6,-7.8 -0.4,-1.1 -1.5,-1.6 -3.2,-1.6 -1.4,0 -2.4,0.5 -3.1,1.5 -0.7,1 -1,2.5 -1,4.5 0,2.7 0.2,4.7 0.5,6 0.3,1.3 1.4,2.7 3.1,4.2 1.7,1.5 5.3,3.7 10.6,6.6 7.2,3.8 11.9,7.5 14.1,10.9 2.2,3.4 3.4,8.3 3.4,14.8 0,7.2 -0.9,12.7 -2.6,16.4 -1.7,3.7 -4.6,6.5 -8.6,8.5 -4,2 -8.8,3 -14.5,3 -6.3,0 -11.6,-1.1 -16.1,-3.2 -4.5,-2.1 -7.5,-5.1 -9.2,-8.7 -1.7,-3.7 -2.5,-9.2 -2.5,-16.6 v -4.3 h 21.8 v 5.6 c 0,4.8 0.3,7.9 0.8,9.3 0.5,1.4 1.6,2.1 3.3,2.1 1.7,0 3,-0.5 3.7,-1.4 0.7,-1 1,-3 1,-6.1 0,-4.2 -0.4,-6.9 -1.3,-8 -0.9,-1.1 -5.7,-4.2 -14.3,-9.5 -7.2,-4.5 -11.6,-8.5 -13.2,-12.2 -1.6,-3.6 -2.4,-8 -2.4,-13 0,-7.1 0.9,-12.4 2.6,-15.7 1.7,-3.4 4.6,-6 8.7,-7.8 4.1,-1.8 8.8,-2.8 14.2,-2.8 5.4,0 9.9,0.8 13.7,2.2 3.8,1.5 6.6,3.5 8.7,5.9 2,2.5 3.2,4.7 3.7,6.8 0.4,2.1 0.6,5.4 0.6,9.9 v 5.3 z"
   id="path88"
   inkscape:connector-curvature="0" />
	<path
   d="m 2363.9,703 h -23.1 v -6 c 0,-6.9 0.7,-12.2 2.2,-15.9 1.4,-3.7 4.3,-7 8.7,-9.9 4.4,-2.9 10,-4.3 17,-4.3 8.3,0 14.6,1.6 18.8,4.9 4.2,3.2 6.8,7.2 7.6,11.9 0.9,4.7 1.3,14.4 1.3,29.1 v 44.7 h -24 v -7.9 c -1.5,3.2 -3.4,5.6 -5.8,7.2 -2.4,1.6 -5.2,2.4 -8.5,2.4 -4.3,0 -8.3,-1.3 -11.9,-4 -3.6,-2.7 -5.4,-8.5 -5.4,-17.5 v -7.3 c 0,-6.7 1,-11.2 2.9,-13.6 1.9,-2.4 6.6,-5.2 14.2,-8.5 8.1,-3.5 12.4,-5.8 13,-7 0.6,-1.2 0.9,-3.7 0.9,-7.4 0,-4.7 -0.3,-7.7 -0.9,-9.1 -0.6,-1.4 -1.7,-2.1 -3.1,-2.1 -1.7,0 -2.7,0.6 -3.1,1.8 -0.4,1.2 -0.6,4.3 -0.6,9.2 v 9.3 z m 7.8,12.2 c -3.9,3.2 -6.2,5.8 -6.9,8 -0.6,2.1 -0.9,5.2 -0.9,9.3 0,4.6 0.3,7.6 0.8,8.9 0.5,1.3 1.6,2 3.3,2 1.5,0 2.6,-0.5 3,-1.6 0.5,-1 0.7,-3.8 0.7,-8.3 z"
   id="path90"
   inkscape:connector-curvature="0" />
	<path
   d="m 2437.1,656.6 v 14 h 6.6 v 14.1 h -6.6 v 47.6 c 0,5.9 0.3,9.1 0.8,9.8 0.5,0.7 2.8,1 6.9,1 v 14.4 h -9.9 c -5.6,0 -9.6,-0.3 -12,-0.8 -2.4,-0.5 -4.5,-1.7 -6.3,-3.6 -1.8,-1.9 -3,-4 -3.4,-6.4 -0.4,-2.4 -0.7,-8 -0.7,-16.9 v -45.2 h -5.3 v -14.1 h 5.3 v -14 h 24.6 z"
   id="path92"
   inkscape:connector-curvature="0" />
	<path
   d="m 2480.8,648.9 v 14.2 h -25.4 v -14.2 z m 0,19.6 v 89 h -25.4 v -89 z"
   id="path94"
   inkscape:connector-curvature="0" />
	<path
   d="m 2551.6,699.8 v 21.8 c 0,8 -0.4,13.9 -1.1,17.6 -0.7,3.7 -2.3,7.2 -4.7,10.5 -2.4,3.2 -5.5,5.6 -9.2,7.2 -3.8,1.5 -8.1,2.3 -13,2.3 -5.4,0 -10.1,-0.7 -13.8,-2 -3.7,-1.3 -6.7,-3.3 -8.8,-6 -2.1,-2.7 -3.6,-5.9 -4.5,-9.7 -0.9,-3.8 -1.3,-9.4 -1.3,-17 v -22.8 c 0,-8.3 0.8,-14.7 2.4,-19.4 1.6,-4.7 4.6,-8.4 8.8,-11.2 4.2,-2.8 9.6,-4.2 16.2,-4.2 5.5,0 10.3,0.9 14.2,2.7 4,1.8 7,4.2 9.2,7.1 2.2,2.9 3.6,5.9 4.4,9 0.8,3.1 1.2,7.8 1.2,14.1 z m -24.6,-6.7 c 0,-4.6 -0.2,-7.4 -0.7,-8.6 -0.4,-1.2 -1.4,-1.8 -2.9,-1.8 -1.5,0 -2.4,0.6 -2.9,1.8 -0.5,1.2 -0.7,4.1 -0.7,8.6 v 40.2 c 0,4.2 0.2,6.9 0.7,8.2 0.5,1.3 1.4,1.9 2.9,1.9 1.5,0 2.4,-0.6 2.9,-1.7 0.5,-1.2 0.7,-3.7 0.7,-7.5 z"
   id="path96"
   inkscape:connector-curvature="0" />
	<path
   d="m 2591,668.5 -0.4,8.2 c 1.8,-3.3 4,-5.7 6.6,-7.4 2.6,-1.6 5.6,-2.5 8.9,-2.5 4.2,0 7.7,1.1 10.4,3.3 2.7,2.2 4.4,5 5.2,8.3 0.8,3.3 1.2,8.9 1.2,16.7 v 62.4 h -24.6 v -61.7 c 0,-6.1 -0.2,-9.9 -0.5,-11.2 -0.3,-1.3 -1.4,-2 -3,-2 -1.7,0 -2.8,0.8 -3.3,2.3 -0.5,1.5 -0.7,5.7 -0.7,12.4 v 60.2 H 2566 v -89 z"
   id="path98"
   inkscape:connector-curvature="0" />
</g><path
     style="clip-rule:evenodd;fill-rule:evenodd"
     class="st0"
     d="m 446.1,300.1 -29.8,250.4 h -80.9 c -4.3,-30.6 -9.6,-71 -15.8,-121.3 -2.4,22.2 -5.3,44.5 -8.7,66.9 l -8.1,54.4 H 221.9 L 190.5,300.1 h 63.9 c 0.8,6.6 6.3,54.6 16.5,143.8 1.1,-9.3 6.7,-57.2 16.8,-143.8 h 61.8 l 15.3,143.8 c 2.5,-42 8.3,-89.9 17.3,-143.8 z"
     id="path6"
     inkscape:connector-curvature="0" /><path
     d="m 540.19922,295.69922 c -17.2,0 -32.3,3.40156 -45.5,10.10156 -13.2,6.8 -22.7,16.39961 -28.5,29.09961 -5.8,12.6 -8.69922,29.89883 -8.69922,51.79883 v 73 c 0,18.7 1.30039,32.80156 3.90039,42.60156 2.6,9.7 7.3,18.69883 14,26.79883 6.7,8.2 16.09922,14.50117 28.19922,19.20117 12.1,4.7 26.00078,7 41.80078,7 16.3,0 29.79961,-2.3 40.59961,-7 10.8,-4.7 19.69922,-11.80117 26.69922,-21.20117 7,-9.4 11.50039,-18.2 13.40039,-26.5 C 627.99961,492.29961 629,480.4 629,465 v -18.59961 h -70.5 v 32.79883 c 0,12.4 -1.00039,20.7 -2.90039,25 -1.9,4.4 -5.70039,6.5 -11.40039,6.5 -4.6,0 -7.69883,-1.59844 -9.29883,-4.89844 C 533.30039,502.60078 532.5,495.3 532.5,484 v -53.90039 h 96.30078 v -33.40039 c 0,-24.3 -2.70117,-43.1 -8.20117,-56.5 -5.4,-13.4 -14.99961,-24.19883 -28.59961,-32.29883 -13.6,-8.1 -30.90078,-12.20117 -51.80078,-12.20117 z m 3.70117,50.40039 c 1.6,0 2.6,0.70039 3,1.90039 1.1,3.1 1.69922,10.8 1.69922,23 v 12.5 h -10.5 V 371 c 0,-13.3 0.5,-21.30078 1.5,-23.80078 0.3,-0.7 1.70078,-1.09961 4.30078,-1.09961 z"
     id="path8"
     inkscape:connector-curvature="0" /><path
     d="m 748.09961,245 v 71.59961 c -6.3,-6.9 -13.20039,-12.1 -20.90039,-15.5 -7.7,-3.5 -16.09883,-5.19922 -25.29883,-5.19922 -12,0 -22.20078,2.99961 -30.80078,9.09961 -8.6,6.1 -14.1,13.19922 -16.5,21.19922 -2.4,8.1 -3.59961,21.7 -3.59961,41 v 117.20117 c 0,18.5 1.19961,31.8 3.59961,40 2.4,8.2 7.80078,15.39961 16.30078,21.59961 8.4,6.2 18.4,9.30078 30,9.30078 8.6,0 16.79922,-1.90117 24.69922,-5.70117 7.9,-3.9 15.4,-9.59883 22.5,-17.29883 V 550.5 h 74.80078 V 245 Z m -11.29883,95.40039 c 4.5,0 7.5,1.59922 9,4.69922 1.5,3.2 2.29883,9.3 2.29883,18.5 H 748 v 115.30078 c 0,14 -0.80039,22.69883 -2.40039,26.29883 -1.5,3.6 -4.70039,5.40039 -9.40039,5.40039 -4.1,0 -6.89883,-1.59883 -8.29883,-4.79883 -1.5,-3.2 -2.20117,-9.8 -2.20117,-20 V 363.5 c 0,-9.8 0.80078,-16.10039 2.30078,-18.90039 1.5,-2.8 4.40078,-4.19922 8.80078,-4.19922 z"
     id="path10"
     inkscape:connector-curvature="0" /><path
     style="clip-rule:evenodd;fill-rule:evenodd"
     class="st0"
     d="M 170.8,337.9 H 98.7 V 315 c 0,-10.7 -0.9,-17.5 -2.8,-20.4 -1.8,-2.9 -4.9,-4.4 -9.1,-4.4 -4.6,0 -8.2,2 -10.5,5.9 -2.4,3.9 -3.6,9.9 -3.6,17.8 0,10.2 1.3,17.9 4,23.1 2.5,5.2 9.8,11.4 21.9,18.7 34.5,20.9 56.3,38.1 65.3,51.6 8.9,13.5 13.4,35.2 13.4,65.2 0,21.8 -2.5,37.9 -7.5,48.2 -5,10.3 -14.6,19 -28.9,26 -14.3,7 -30.9,10.5 -49.8,10.5 -20.8,0 -38.5,-4.1 -53.2,-12.1 C 23.2,537 13.6,526.7 9,514.3 4.5,501.8 2.2,484.1 2.2,461.1 V 441 h 72.2 v 37.5 c 0,11.6 1,19 3,22.3 2,3.3 5.6,5 10.8,5 5.2,0 9,-2.1 11.5,-6.3 2.5,-4.2 3.8,-10.4 3.8,-18.6 0,-18.1 -2.4,-29.9 -7.1,-35.5 C 91.6,439.8 79.5,430.6 60.1,417.8 40.8,404.8 28,395.3 21.7,389.4 15.4,383.5 10.3,375.3 6.2,364.8 2.1,354.2 0,340.9 0,324.6 c 0,-23.4 2.9,-40.5 8.8,-51.4 5.8,-10.8 15.3,-19.3 28.3,-25.4 13,-6.1 28.7,-9.1 47.2,-9.1 20.1,0 37.3,3.3 51.5,10 14.2,6.7 23.6,15.1 28.2,25.3 4.6,10.2 6.9,27.4 6.9,51.8 v 12.1 z"
     id="path28"
     inkscape:connector-curvature="0" /><polygon
     style="clip-rule:evenodd;fill:#d52c1c;fill-rule:evenodd"
     class="st2"
     points="842.1,306.1 842.1,245.1 1012.4,245.1 1012.4,306.1 966.2,306.1 966.2,550.7 888.2,550.7 888.2,306.1 "
     id="polygon30" /><path
     style="clip-rule:evenodd;fill:#d52c1c;fill-rule:evenodd"
     class="st2"
     d="m 1199.8,430.2 h -96.5 v 53.9 c 0,11.3 0.8,18.6 2.4,21.8 1.6,3.3 4.7,4.9 9.3,4.9 5.7,0 9.5,-2.1 11.4,-6.5 1.9,-4.3 2.9,-12.6 2.9,-25 v -32.8 h 70.5 v 18.4 c 0,15.4 -1,27.3 -2.9,35.6 -1.9,8.3 -6.4,17.1 -13.4,26.5 -7,9.4 -15.9,16.5 -26.7,21.2 -10.8,4.7 -24.3,7 -40.6,7 -15.8,0 -29.7,-2.3 -41.8,-7 -12.1,-4.7 -21.5,-11 -28.2,-19.2 -6.7,-8.1 -11.4,-17.1 -14,-26.8 -2.6,-9.8 -3.9,-23.9 -3.9,-42.6 v -73 c 0,-21.9 2.9,-39.2 8.7,-51.8 5.8,-12.7 15.3,-22.3 28.5,-29.1 13.2,-6.7 28.3,-10.1 45.5,-10.1 20.9,0 38.2,4.1 51.8,12.2 13.6,8.1 23.2,18.9 28.6,32.3 5.5,13.4 8.2,32.2 8.2,56.5 v 33.6 z M 1125,389.4 v -18.2 c 0,-12.9 -0.7,-21.2 -2,-25 -1.4,-3.7 -4.1,-5.6 -8.3,-5.6 -5.2,0 -8.4,1.6 -9.6,4.8 -1.2,3.2 -1.8,11.8 -1.8,25.8 v 18.2 z"
     id="path32"
     inkscape:connector-curvature="0" /><path
     style="clip-rule:evenodd;fill:#d52c1c;fill-rule:evenodd"
     class="st2"
     d="m 1388.9,395.2 h -70.6 v -28.8 c 0,-10 -0.8,-16.8 -2.3,-20.4 -1.6,-3.6 -4.5,-5.4 -8.7,-5.4 -4.2,0 -7.1,1.6 -8.5,4.7 -1.4,3.1 -2.2,10.2 -2.2,21.1 v 117.8 c 0,8.9 1.1,15.6 3.2,20 2.2,4.5 5.4,6.7 9.6,6.7 4.9,0 8.3,-2.3 10,-7 1.8,-4.6 2.6,-13.4 2.6,-26.4 v -29.8 h 66.8 c -0.1,20 -0.8,35 -2.1,45.1 -1.3,10 -5.4,20.3 -12.4,30.8 -6.9,10.5 -16,18.4 -27.2,23.8 -11.2,5.4 -25.1,8 -41.5,8 -21.1,0 -37.7,-3.7 -50.1,-11 -12.3,-7.4 -21,-17.7 -26.1,-30.9 -5.1,-13.3 -7.7,-32.1 -7.7,-56.5 v -71.1 c 0,-21.2 2.1,-37.3 6.3,-48.1 4.2,-10.8 13.1,-20.5 26.8,-29 13.7,-8.5 30.3,-12.8 49.9,-12.8 19.4,0 36.1,4.2 49.8,12.7 13.8,8.4 23,19.1 27.5,31.9 4.6,12.9 6.9,31.1 6.9,54.6 z"
     id="path34"
     inkscape:connector-curvature="0" /><path
     style="clip-rule:evenodd;fill:#d52c1c;fill-rule:evenodd"
     class="st2"
     d="m 1485.7,245.1 v 69.3 c 6.4,-6.1 13.3,-10.7 20.8,-13.8 7.5,-3.1 15.5,-4.6 24,-4.6 13.1,0 24.2,3.4 33.4,10.2 9.2,6.8 14.8,14.6 16.8,23.5 2,8.8 3.1,25 3.1,48.5 V 550.7 H 1509 V 374.8 c 0,-14.5 -0.7,-23.9 -2.1,-28 -1.4,-4.2 -4.6,-6.2 -9.5,-6.2 -4.6,0 -7.7,2.1 -9.3,6.4 -1.6,4.3 -2.4,12.7 -2.4,25.4 v 178.3 h -74.8 V 245.1 Z"
     id="path36"
     inkscape:connector-curvature="0" /><path
     style="clip-rule:evenodd;fill-rule:evenodd"
     class="st0"
     d="m 1677.8,245.1 h 58.3 c 37.6,0 63.1,1.8 76.3,5.3 13.3,3.5 23.3,9.3 30.3,17.4 6.9,8.1 11.2,17 13,26.9 1.7,9.9 2.6,29.3 2.6,58.2 v 107 c 0,27.4 -1.3,45.8 -3.8,55 -2.5,9.3 -6.9,16.5 -13.2,21.7 -6.3,5.2 -14,8.9 -23.3,10.9 -9.2,2.1 -23.2,3.1 -41.8,3.1 H 1678 V 245.1 Z m 78,52 v 201.6 c 11.1,0 18,-2.3 20.5,-6.9 2.6,-4.6 3.9,-17.1 3.9,-37.6 V 335.1 c 0,-13.9 -0.4,-22.8 -1.3,-26.7 -0.9,-3.9 -2.8,-6.8 -5.9,-8.6 -3,-1.8 -8.7,-2.7 -17.2,-2.7 z"
     id="path38"
     inkscape:connector-curvature="0" /><path
     style="clip-rule:evenodd;fill-rule:evenodd"
     class="st0"
     d="m 1961.7,245.1 v 39.8 h -76.9 v -39.8 z m 0,55.2 v 250.4 h -76.9 V 300.3 Z"
     id="path40"
     inkscape:connector-curvature="0" /><path
     style="clip-rule:evenodd;fill-rule:evenodd"
     class="st0"
     d="m 2142.7,300.3 -35,250.4 h -97.1 l -37.7,-250.4 h 66.6 l 21.2,183.2 c 1.5,-13.6 4.3,-46.5 8.3,-98.5 2.1,-29 4.5,-57.3 7.1,-84.7 z"
     id="path42"
     inkscape:connector-curvature="0" /><path
     style="clip-rule:evenodd;fill-rule:evenodd"
     class="st0"
     d="m 2230.5,245.1 v 39.8 h -76.9 v -39.8 z m 0,55.2 v 250.4 h -76.9 V 300.3 Z"
     id="path44"
     inkscape:connector-curvature="0" /><path
     style="clip-rule:evenodd;fill-rule:evenodd"
     class="st0"
     d="m 2333,300.3 -1.1,23.5 c 5.4,-9.2 12,-16.2 19.9,-20.8 7.8,-4.6 16.9,-6.9 27.1,-6.9 12.8,0 23.3,3.1 31.4,9.2 8.1,6.2 13.4,13.9 15.7,23.3 2.3,9.4 3.5,25 3.5,46.8 v 175.3 h -74.8 v -173 c 0,-17.2 -0.6,-27.7 -1.7,-31.4 -1.1,-3.8 -4.2,-5.6 -9.2,-5.6 -5.3,0 -8.6,2.2 -9.9,6.5 -1.3,4.3 -2,15.9 -2,34.7 v 168.9 h -74.8 V 300.3 Z"
     id="path46"
     inkscape:connector-curvature="0" /><path
     style="clip-rule:evenodd;fill-rule:evenodd"
     class="st0"
     d="M 2624.7,300.3 V 493 c 0,26 -0.6,42.8 -1.8,50.4 -1.2,7.6 -5.3,15.6 -12.5,24.1 -7.2,8.5 -17.1,15 -29.8,19.4 -12.8,4.4 -28.8,6.7 -48.1,6.7 -23.8,0 -42.9,-4.1 -57.3,-12.4 -14.4,-8.3 -21.9,-24.5 -22.4,-48.6 h 72.2 c 0,11 4,16.4 11.9,16.4 5.7,0 9.5,-1.7 11.3,-5.1 1.9,-3.4 2.8,-10.5 2.8,-21.3 V 504 c -6.4,6 -13.1,10.5 -20.2,13.5 -7.1,3 -14.5,4.6 -22.2,4.6 -13.4,0 -24.4,-2.8 -33.1,-8.3 -8.7,-5.5 -14.6,-12.8 -17.8,-21.7 -3.2,-9 -4.8,-21.8 -4.8,-38.3 V 363 c 0,-23.7 4.2,-40.8 12.6,-51.2 8.4,-10.4 21.1,-15.6 38.3,-15.6 9.4,0 17.9,2 25.6,5.9 7.7,3.9 14.6,9.8 20.6,17.6 l 5.3,-19.3 h 69.4 z m -74.8,66.8 c 0,-11.4 -0.7,-18.6 -1.9,-21.8 -1.3,-3.1 -4.2,-4.7 -8.6,-4.7 -4.3,0 -7.4,1.8 -9.1,5.3 -1.8,3.6 -2.7,10.6 -2.7,21.1 v 83.8 c 0,11.1 0.7,18.4 2,21.7 1.4,3.3 4.2,5 8.5,5 4.9,0 8.1,-2 9.6,-6 1.5,-4 2.2,-13.1 2.2,-27.2 z"
     id="path48"
     inkscape:connector-curvature="0" /></g></svg>